<mxfile host="app.diagrams.net" agent="Mozilla/5.0 (X11; Linux x86_64) AppleWebKit/537.36 (KHTML, like Gecko) Chrome/134.0.0.0 Safari/537.36 Edg/134.0.0.0" version="24.7.16">
  <diagram name="Page-1" id="i0JoWHrgrwpdoupBjsw-">
    <mxGraphModel dx="3155" dy="837" grid="1" gridSize="10" guides="1" tooltips="1" connect="1" arrows="1" fold="1" page="1" pageScale="1" pageWidth="827" pageHeight="1169" math="0" shadow="0">
      <root>
        <mxCell id="0" />
        <mxCell id="1" parent="0" />
        <mxCell id="fopj0CuFSMQbgC9IibL4-1" value="Comprar um ingresso" style="swimlane;html=1;startSize=20;fontStyle=0;collapsible=0;horizontal=0;swimlaneLine=1;swimlaneFillColor=#ffffff;strokeWidth=2;whiteSpace=wrap;" vertex="1" parent="1">
          <mxGeometry x="-1280" y="380" width="2410" height="720" as="geometry" />
        </mxCell>
        <mxCell id="fopj0CuFSMQbgC9IibL4-5" value="Pedido recebido" style="points=[[0.145,0.145,0],[0.5,0,0],[0.855,0.145,0],[1,0.5,0],[0.855,0.855,0],[0.5,1,0],[0.145,0.855,0],[0,0.5,0]];shape=mxgraph.bpmn.event;html=1;verticalLabelPosition=bottom;labelBackgroundColor=#ffffff;verticalAlign=top;align=center;perimeter=ellipsePerimeter;outlineConnect=0;aspect=fixed;outline=standard;symbol=general;" vertex="1" parent="fopj0CuFSMQbgC9IibL4-1">
          <mxGeometry x="90" y="80" width="50" height="50" as="geometry" />
        </mxCell>
        <mxCell id="fopj0CuFSMQbgC9IibL4-7" value="Enviar confirmação" style="points=[[0.25,0,0],[0.5,0,0],[0.75,0,0],[1,0.25,0],[1,0.5,0],[1,0.75,0],[0.75,1,0],[0.5,1,0],[0.25,1,0],[0,0.75,0],[0,0.5,0],[0,0.25,0]];shape=mxgraph.bpmn.task;whiteSpace=wrap;rectStyle=rounded;size=10;html=1;container=1;expand=0;collapsible=0;taskMarker=send;" vertex="1" parent="fopj0CuFSMQbgC9IibL4-1">
          <mxGeometry x="2027" y="60" width="120" height="80" as="geometry" />
        </mxCell>
        <mxCell id="fopj0CuFSMQbgC9IibL4-8" value="Pedido confirmado" style="points=[[0.145,0.145,0],[0.5,0,0],[0.855,0.145,0],[1,0.5,0],[0.855,0.855,0],[0.5,1,0],[0.145,0.855,0],[0,0.5,0]];shape=mxgraph.bpmn.event;html=1;verticalLabelPosition=bottom;labelBackgroundColor=#ffffff;verticalAlign=top;align=center;perimeter=ellipsePerimeter;outlineConnect=0;aspect=fixed;outline=standard;symbol=general;" vertex="1" parent="fopj0CuFSMQbgC9IibL4-1">
          <mxGeometry x="2210" y="75" width="50" height="50" as="geometry" />
        </mxCell>
        <mxCell id="fopj0CuFSMQbgC9IibL4-11" style="edgeStyle=orthogonalEdgeStyle;rounded=0;orthogonalLoop=1;jettySize=auto;html=1;exitX=1;exitY=0.5;exitDx=0;exitDy=0;exitPerimeter=0;entryX=0;entryY=0.5;entryDx=0;entryDy=0;entryPerimeter=0;" edge="1" parent="fopj0CuFSMQbgC9IibL4-1" source="fopj0CuFSMQbgC9IibL4-9" target="fopj0CuFSMQbgC9IibL4-8">
          <mxGeometry relative="1" as="geometry">
            <mxPoint x="1330" y="80" as="targetPoint" />
          </mxGeometry>
        </mxCell>
        <mxCell id="fopj0CuFSMQbgC9IibL4-9" value="Enviar confirmação (notificação no app)&amp;nbsp;" style="points=[[0.25,0,0],[0.5,0,0],[0.75,0,0],[1,0.25,0],[1,0.5,0],[1,0.75,0],[0.75,1,0],[0.5,1,0],[0.25,1,0],[0,0.75,0],[0,0.5,0],[0,0.25,0]];shape=mxgraph.bpmn.task;whiteSpace=wrap;rectStyle=rounded;size=10;html=1;container=1;expand=0;collapsible=0;taskMarker=abstract;" vertex="1" parent="fopj0CuFSMQbgC9IibL4-1">
          <mxGeometry x="2027" y="180" width="120" height="80" as="geometry" />
        </mxCell>
        <mxCell id="fopj0CuFSMQbgC9IibL4-10" style="edgeStyle=orthogonalEdgeStyle;rounded=0;orthogonalLoop=1;jettySize=auto;html=1;exitX=1;exitY=0.5;exitDx=0;exitDy=0;exitPerimeter=0;entryX=0;entryY=0.5;entryDx=0;entryDy=0;entryPerimeter=0;" edge="1" parent="fopj0CuFSMQbgC9IibL4-1" source="fopj0CuFSMQbgC9IibL4-7" target="fopj0CuFSMQbgC9IibL4-8">
          <mxGeometry relative="1" as="geometry" />
        </mxCell>
        <mxCell id="fopj0CuFSMQbgC9IibL4-12" value="Atualizar status do pedido" style="points=[[0.25,0,0],[0.5,0,0],[0.75,0,0],[1,0.25,0],[1,0.5,0],[1,0.75,0],[0.75,1,0],[0.5,1,0],[0.25,1,0],[0,0.75,0],[0,0.5,0],[0,0.25,0]];shape=mxgraph.bpmn.task;whiteSpace=wrap;rectStyle=rounded;size=10;html=1;container=1;expand=0;collapsible=0;taskMarker=service;" vertex="1" parent="fopj0CuFSMQbgC9IibL4-1">
          <mxGeometry x="1840" y="60" width="120" height="80" as="geometry" />
        </mxCell>
        <mxCell id="fopj0CuFSMQbgC9IibL4-13" style="edgeStyle=orthogonalEdgeStyle;rounded=0;orthogonalLoop=1;jettySize=auto;html=1;exitX=1;exitY=0.5;exitDx=0;exitDy=0;exitPerimeter=0;entryX=0;entryY=0.5;entryDx=0;entryDy=0;entryPerimeter=0;" edge="1" parent="fopj0CuFSMQbgC9IibL4-1" source="fopj0CuFSMQbgC9IibL4-12" target="fopj0CuFSMQbgC9IibL4-7">
          <mxGeometry relative="1" as="geometry" />
        </mxCell>
        <mxCell id="fopj0CuFSMQbgC9IibL4-14" style="edgeStyle=orthogonalEdgeStyle;rounded=0;orthogonalLoop=1;jettySize=auto;html=1;exitX=1;exitY=0.5;exitDx=0;exitDy=0;exitPerimeter=0;entryX=0;entryY=0.5;entryDx=0;entryDy=0;entryPerimeter=0;" edge="1" parent="fopj0CuFSMQbgC9IibL4-1" source="fopj0CuFSMQbgC9IibL4-12" target="fopj0CuFSMQbgC9IibL4-9">
          <mxGeometry relative="1" as="geometry" />
        </mxCell>
        <mxCell id="fopj0CuFSMQbgC9IibL4-15" value="Pedidos anteriores com&lt;br&gt;&amp;nbsp;pagamento pendente?" style="points=[[0.25,0.25,0],[0.5,0,0],[0.75,0.25,0],[1,0.5,0],[0.75,0.75,0],[0.5,1,0],[0.25,0.75,0],[0,0.5,0]];shape=mxgraph.bpmn.gateway2;html=1;verticalLabelPosition=bottom;labelBackgroundColor=#ffffff;verticalAlign=top;align=center;perimeter=rhombusPerimeter;outlineConnect=0;outline=none;symbol=none;gwType=exclusive;" vertex="1" parent="fopj0CuFSMQbgC9IibL4-1">
          <mxGeometry x="820" y="80" width="50" height="50" as="geometry" />
        </mxCell>
        <mxCell id="fopj0CuFSMQbgC9IibL4-16" value="Enviar aviso de pagamento pendente" style="points=[[0.25,0,0],[0.5,0,0],[0.75,0,0],[1,0.25,0],[1,0.5,0],[1,0.75,0],[0.75,1,0],[0.5,1,0],[0.25,1,0],[0,0.75,0],[0,0.5,0],[0,0.25,0]];shape=mxgraph.bpmn.task;whiteSpace=wrap;rectStyle=rounded;size=10;html=1;container=1;expand=0;collapsible=0;taskMarker=send;" vertex="1" parent="fopj0CuFSMQbgC9IibL4-1">
          <mxGeometry x="943" y="500" width="120" height="80" as="geometry" />
        </mxCell>
        <mxCell id="fopj0CuFSMQbgC9IibL4-18" value="Processar pagamento" style="points=[[0.25,0,0],[0.5,0,0],[0.75,0,0],[1,0.25,0],[1,0.5,0],[1,0.75,0],[0.75,1,0],[0.5,1,0],[0.25,1,0],[0,0.75,0],[0,0.5,0],[0,0.25,0]];shape=mxgraph.bpmn.task;whiteSpace=wrap;rectStyle=rounded;size=10;html=1;container=1;expand=0;collapsible=0;taskMarker=service;" vertex="1" parent="fopj0CuFSMQbgC9IibL4-1">
          <mxGeometry x="1360" y="65" width="120" height="80" as="geometry" />
        </mxCell>
        <mxCell id="fopj0CuFSMQbgC9IibL4-19" value="Registrar pedido" style="points=[[0.25,0,0],[0.5,0,0],[0.75,0,0],[1,0.25,0],[1,0.5,0],[1,0.75,0],[0.75,1,0],[0.5,1,0],[0.25,1,0],[0,0.75,0],[0,0.5,0],[0,0.25,0]];shape=mxgraph.bpmn.task;whiteSpace=wrap;rectStyle=rounded;size=10;html=1;container=1;expand=0;collapsible=0;taskMarker=service;" vertex="1" parent="fopj0CuFSMQbgC9IibL4-1">
          <mxGeometry x="1100" y="65" width="120" height="80" as="geometry" />
        </mxCell>
        <mxCell id="fopj0CuFSMQbgC9IibL4-21" style="edgeStyle=orthogonalEdgeStyle;rounded=0;orthogonalLoop=1;jettySize=auto;html=1;exitX=0.5;exitY=1;exitDx=0;exitDy=0;exitPerimeter=0;entryX=0;entryY=0.5;entryDx=0;entryDy=0;entryPerimeter=0;" edge="1" parent="fopj0CuFSMQbgC9IibL4-1" source="fopj0CuFSMQbgC9IibL4-15" target="fopj0CuFSMQbgC9IibL4-16">
          <mxGeometry relative="1" as="geometry" />
        </mxCell>
        <mxCell id="fopj0CuFSMQbgC9IibL4-27" value="sim" style="edgeLabel;html=1;align=center;verticalAlign=middle;resizable=0;points=[];" vertex="1" connectable="0" parent="fopj0CuFSMQbgC9IibL4-21">
          <mxGeometry x="-0.0731" y="-1" relative="1" as="geometry">
            <mxPoint x="1" as="offset" />
          </mxGeometry>
        </mxCell>
        <mxCell id="fopj0CuFSMQbgC9IibL4-22" value="Pedido recusado" style="points=[[0.145,0.145,0],[0.5,0,0],[0.855,0.145,0],[1,0.5,0],[0.855,0.855,0],[0.5,1,0],[0.145,0.855,0],[0,0.5,0]];shape=mxgraph.bpmn.event;html=1;verticalLabelPosition=bottom;labelBackgroundColor=#ffffff;verticalAlign=top;align=center;perimeter=ellipsePerimeter;outlineConnect=0;aspect=fixed;outline=end;symbol=terminate;" vertex="1" parent="fopj0CuFSMQbgC9IibL4-1">
          <mxGeometry x="1323" y="515" width="50" height="50" as="geometry" />
        </mxCell>
        <mxCell id="fopj0CuFSMQbgC9IibL4-24" value="Atualizar status do pedido" style="points=[[0.25,0,0],[0.5,0,0],[0.75,0,0],[1,0.25,0],[1,0.5,0],[1,0.75,0],[0.75,1,0],[0.5,1,0],[0.25,1,0],[0,0.75,0],[0,0.5,0],[0,0.25,0]];shape=mxgraph.bpmn.task;whiteSpace=wrap;rectStyle=rounded;size=10;html=1;container=1;expand=0;collapsible=0;taskMarker=service;" vertex="1" parent="fopj0CuFSMQbgC9IibL4-1">
          <mxGeometry x="1113" y="400" width="120" height="80" as="geometry" />
        </mxCell>
        <mxCell id="fopj0CuFSMQbgC9IibL4-25" style="edgeStyle=orthogonalEdgeStyle;rounded=0;orthogonalLoop=1;jettySize=auto;html=1;exitX=1;exitY=0.5;exitDx=0;exitDy=0;exitPerimeter=0;entryX=0;entryY=0.5;entryDx=0;entryDy=0;entryPerimeter=0;" edge="1" parent="fopj0CuFSMQbgC9IibL4-1" source="fopj0CuFSMQbgC9IibL4-16" target="fopj0CuFSMQbgC9IibL4-22">
          <mxGeometry relative="1" as="geometry" />
        </mxCell>
        <mxCell id="fopj0CuFSMQbgC9IibL4-26" style="edgeStyle=orthogonalEdgeStyle;rounded=0;orthogonalLoop=1;jettySize=auto;html=1;exitX=1;exitY=0.5;exitDx=0;exitDy=0;exitPerimeter=0;entryX=0;entryY=0.5;entryDx=0;entryDy=0;entryPerimeter=0;" edge="1" parent="fopj0CuFSMQbgC9IibL4-1" source="fopj0CuFSMQbgC9IibL4-24" target="fopj0CuFSMQbgC9IibL4-22">
          <mxGeometry relative="1" as="geometry" />
        </mxCell>
        <mxCell id="fopj0CuFSMQbgC9IibL4-28" style="edgeStyle=orthogonalEdgeStyle;rounded=0;orthogonalLoop=1;jettySize=auto;html=1;exitX=1;exitY=0.5;exitDx=0;exitDy=0;exitPerimeter=0;entryX=0;entryY=0.5;entryDx=0;entryDy=0;entryPerimeter=0;" edge="1" parent="fopj0CuFSMQbgC9IibL4-1" source="fopj0CuFSMQbgC9IibL4-15" target="fopj0CuFSMQbgC9IibL4-53">
          <mxGeometry relative="1" as="geometry" />
        </mxCell>
        <mxCell id="fopj0CuFSMQbgC9IibL4-29" value="não" style="edgeLabel;html=1;align=center;verticalAlign=middle;resizable=0;points=[];" vertex="1" connectable="0" parent="fopj0CuFSMQbgC9IibL4-28">
          <mxGeometry x="-0.2986" y="-2" relative="1" as="geometry">
            <mxPoint as="offset" />
          </mxGeometry>
        </mxCell>
        <mxCell id="fopj0CuFSMQbgC9IibL4-30" style="edgeStyle=orthogonalEdgeStyle;rounded=0;orthogonalLoop=1;jettySize=auto;html=1;exitX=1;exitY=0.5;exitDx=0;exitDy=0;exitPerimeter=0;entryX=0;entryY=0.5;entryDx=0;entryDy=0;entryPerimeter=0;" edge="1" parent="fopj0CuFSMQbgC9IibL4-1" source="fopj0CuFSMQbgC9IibL4-5" target="fopj0CuFSMQbgC9IibL4-42">
          <mxGeometry relative="1" as="geometry" />
        </mxCell>
        <mxCell id="fopj0CuFSMQbgC9IibL4-31" style="edgeStyle=orthogonalEdgeStyle;rounded=0;orthogonalLoop=1;jettySize=auto;html=1;exitX=1;exitY=0.5;exitDx=0;exitDy=0;exitPerimeter=0;entryX=0;entryY=0.5;entryDx=0;entryDy=0;entryPerimeter=0;" edge="1" parent="fopj0CuFSMQbgC9IibL4-1" source="fopj0CuFSMQbgC9IibL4-19" target="fopj0CuFSMQbgC9IibL4-18">
          <mxGeometry relative="1" as="geometry" />
        </mxCell>
        <mxCell id="fopj0CuFSMQbgC9IibL4-32" value="Pagamento pendente?" style="points=[[0.25,0.25,0],[0.5,0,0],[0.75,0.25,0],[1,0.5,0],[0.75,0.75,0],[0.5,1,0],[0.25,0.75,0],[0,0.5,0]];shape=mxgraph.bpmn.gateway2;html=1;verticalLabelPosition=bottom;labelBackgroundColor=#ffffff;verticalAlign=top;align=center;perimeter=rhombusPerimeter;outlineConnect=0;outline=none;symbol=none;gwType=exclusive;" vertex="1" parent="fopj0CuFSMQbgC9IibL4-1">
          <mxGeometry x="1650" y="80" width="50" height="50" as="geometry" />
        </mxCell>
        <mxCell id="fopj0CuFSMQbgC9IibL4-34" style="edgeStyle=orthogonalEdgeStyle;rounded=0;orthogonalLoop=1;jettySize=auto;html=1;exitX=1;exitY=0.5;exitDx=0;exitDy=0;exitPerimeter=0;entryX=0;entryY=0.5;entryDx=0;entryDy=0;entryPerimeter=0;" edge="1" parent="fopj0CuFSMQbgC9IibL4-1" source="fopj0CuFSMQbgC9IibL4-18" target="fopj0CuFSMQbgC9IibL4-32">
          <mxGeometry relative="1" as="geometry" />
        </mxCell>
        <mxCell id="fopj0CuFSMQbgC9IibL4-35" style="edgeStyle=orthogonalEdgeStyle;rounded=0;orthogonalLoop=1;jettySize=auto;html=1;exitX=0.5;exitY=1;exitDx=0;exitDy=0;exitPerimeter=0;entryX=0;entryY=0.5;entryDx=0;entryDy=0;entryPerimeter=0;" edge="1" parent="fopj0CuFSMQbgC9IibL4-1" source="fopj0CuFSMQbgC9IibL4-32" target="fopj0CuFSMQbgC9IibL4-43">
          <mxGeometry relative="1" as="geometry">
            <Array as="points">
              <mxPoint x="1675" y="380" />
              <mxPoint x="920" y="380" />
              <mxPoint x="920" y="440" />
            </Array>
          </mxGeometry>
        </mxCell>
        <mxCell id="fopj0CuFSMQbgC9IibL4-36" value="sim" style="edgeLabel;html=1;align=center;verticalAlign=middle;resizable=0;points=[];" vertex="1" connectable="0" parent="fopj0CuFSMQbgC9IibL4-35">
          <mxGeometry x="-0.1014" y="-3" relative="1" as="geometry">
            <mxPoint as="offset" />
          </mxGeometry>
        </mxCell>
        <mxCell id="fopj0CuFSMQbgC9IibL4-38" value="2 dias &lt;br&gt;(ou até o início da sessão)" style="points=[[0.145,0.145,0],[0.5,0,0],[0.855,0.145,0],[1,0.5,0],[0.855,0.855,0],[0.5,1,0],[0.145,0.855,0],[0,0.5,0]];shape=mxgraph.bpmn.event;html=1;verticalLabelPosition=bottom;labelBackgroundColor=#ffffff;verticalAlign=top;align=center;perimeter=ellipsePerimeter;outlineConnect=0;aspect=fixed;outline=boundInt;symbol=timer;" vertex="1" parent="fopj0CuFSMQbgC9IibL4-1">
          <mxGeometry x="1480" y="80" width="50" height="50" as="geometry" />
        </mxCell>
        <mxCell id="fopj0CuFSMQbgC9IibL4-39" style="edgeStyle=orthogonalEdgeStyle;rounded=0;orthogonalLoop=1;jettySize=auto;html=1;exitX=1;exitY=0.5;exitDx=0;exitDy=0;exitPerimeter=0;entryX=0;entryY=0.5;entryDx=0;entryDy=0;entryPerimeter=0;" edge="1" parent="fopj0CuFSMQbgC9IibL4-1" source="fopj0CuFSMQbgC9IibL4-32" target="fopj0CuFSMQbgC9IibL4-12">
          <mxGeometry relative="1" as="geometry" />
        </mxCell>
        <mxCell id="fopj0CuFSMQbgC9IibL4-40" value="não" style="edgeLabel;html=1;align=center;verticalAlign=middle;resizable=0;points=[];" vertex="1" connectable="0" parent="fopj0CuFSMQbgC9IibL4-39">
          <mxGeometry x="-0.2" y="-4" relative="1" as="geometry">
            <mxPoint as="offset" />
          </mxGeometry>
        </mxCell>
        <mxCell id="fopj0CuFSMQbgC9IibL4-42" value="Verificar elegibilidade aos tipos de ingressos" style="points=[[0.25,0,0],[0.5,0,0],[0.75,0,0],[1,0.25,0],[1,0.5,0],[1,0.75,0],[0.75,1,0],[0.5,1,0],[0.25,1,0],[0,0.75,0],[0,0.5,0],[0,0.25,0]];shape=mxgraph.bpmn.task;whiteSpace=wrap;rectStyle=rounded;size=10;html=1;container=1;expand=0;collapsible=0;taskMarker=businessRule;" vertex="1" parent="fopj0CuFSMQbgC9IibL4-1">
          <mxGeometry x="250" y="65" width="120" height="80" as="geometry" />
        </mxCell>
        <mxCell id="fopj0CuFSMQbgC9IibL4-43" value="Enviar aviso de falta de pagamento" style="points=[[0.25,0,0],[0.5,0,0],[0.75,0,0],[1,0.25,0],[1,0.5,0],[1,0.75,0],[0.75,1,0],[0.5,1,0],[0.25,1,0],[0,0.75,0],[0,0.5,0],[0,0.25,0]];shape=mxgraph.bpmn.task;whiteSpace=wrap;rectStyle=rounded;size=10;html=1;container=1;expand=0;collapsible=0;taskMarker=send;" vertex="1" parent="fopj0CuFSMQbgC9IibL4-1">
          <mxGeometry x="940" y="400" width="120" height="80" as="geometry" />
        </mxCell>
        <mxCell id="fopj0CuFSMQbgC9IibL4-44" style="edgeStyle=orthogonalEdgeStyle;rounded=0;orthogonalLoop=1;jettySize=auto;html=1;exitX=1;exitY=0.5;exitDx=0;exitDy=0;exitPerimeter=0;entryX=0;entryY=0.5;entryDx=0;entryDy=0;entryPerimeter=0;" edge="1" parent="fopj0CuFSMQbgC9IibL4-1" source="fopj0CuFSMQbgC9IibL4-43" target="fopj0CuFSMQbgC9IibL4-24">
          <mxGeometry relative="1" as="geometry" />
        </mxCell>
        <mxCell id="fopj0CuFSMQbgC9IibL4-45" value="Notificar cinema" style="points=[[0.25,0,0],[0.5,0,0],[0.75,0,0],[1,0.25,0],[1,0.5,0],[1,0.75,0],[0.75,1,0],[0.5,1,0],[0.25,1,0],[0,0.75,0],[0,0.5,0],[0,0.25,0]];shape=mxgraph.bpmn.task;whiteSpace=wrap;rectStyle=rounded;size=10;html=1;container=1;expand=0;collapsible=0;taskMarker=abstract;" vertex="1" parent="fopj0CuFSMQbgC9IibL4-1">
          <mxGeometry x="2027" y="390" width="120" height="80" as="geometry" />
        </mxCell>
        <mxCell id="fopj0CuFSMQbgC9IibL4-46" style="edgeStyle=orthogonalEdgeStyle;rounded=0;orthogonalLoop=1;jettySize=auto;html=1;exitX=1;exitY=0.5;exitDx=0;exitDy=0;exitPerimeter=0;entryX=0;entryY=0.5;entryDx=0;entryDy=0;entryPerimeter=0;" edge="1" parent="fopj0CuFSMQbgC9IibL4-1" source="fopj0CuFSMQbgC9IibL4-12" target="fopj0CuFSMQbgC9IibL4-45">
          <mxGeometry relative="1" as="geometry" />
        </mxCell>
        <mxCell id="fopj0CuFSMQbgC9IibL4-57" style="edgeStyle=orthogonalEdgeStyle;rounded=0;orthogonalLoop=1;jettySize=auto;html=1;exitX=0.5;exitY=1;exitDx=0;exitDy=0;exitPerimeter=0;entryX=0;entryY=0.5;entryDx=0;entryDy=0;entryPerimeter=0;" edge="1" parent="fopj0CuFSMQbgC9IibL4-1" source="fopj0CuFSMQbgC9IibL4-47" target="fopj0CuFSMQbgC9IibL4-55">
          <mxGeometry relative="1" as="geometry">
            <mxPoint x="940" y="650" as="targetPoint" />
          </mxGeometry>
        </mxCell>
        <mxCell id="fopj0CuFSMQbgC9IibL4-58" value="sim" style="edgeLabel;html=1;align=center;verticalAlign=middle;resizable=0;points=[];" vertex="1" connectable="0" parent="fopj0CuFSMQbgC9IibL4-57">
          <mxGeometry x="-0.9239" y="2" relative="1" as="geometry">
            <mxPoint as="offset" />
          </mxGeometry>
        </mxCell>
        <mxCell id="fopj0CuFSMQbgC9IibL4-47" value="Inelegibilidades?" style="points=[[0.25,0.25,0],[0.5,0,0],[0.75,0.25,0],[1,0.5,0],[0.75,0.75,0],[0.5,1,0],[0.25,0.75,0],[0,0.5,0]];shape=mxgraph.bpmn.gateway2;html=1;verticalLabelPosition=bottom;labelBackgroundColor=#ffffff;verticalAlign=top;align=center;perimeter=rhombusPerimeter;outlineConnect=0;outline=none;symbol=none;gwType=exclusive;" vertex="1" parent="fopj0CuFSMQbgC9IibL4-1">
          <mxGeometry x="460" y="80" width="50" height="50" as="geometry" />
        </mxCell>
        <mxCell id="fopj0CuFSMQbgC9IibL4-48" style="edgeStyle=orthogonalEdgeStyle;rounded=0;orthogonalLoop=1;jettySize=auto;html=1;exitX=1;exitY=0.5;exitDx=0;exitDy=0;exitPerimeter=0;entryX=0;entryY=0.5;entryDx=0;entryDy=0;entryPerimeter=0;" edge="1" parent="fopj0CuFSMQbgC9IibL4-1" source="fopj0CuFSMQbgC9IibL4-42" target="fopj0CuFSMQbgC9IibL4-47">
          <mxGeometry relative="1" as="geometry" />
        </mxCell>
        <mxCell id="fopj0CuFSMQbgC9IibL4-49" style="edgeStyle=orthogonalEdgeStyle;rounded=0;orthogonalLoop=1;jettySize=auto;html=1;exitX=1;exitY=0.5;exitDx=0;exitDy=0;exitPerimeter=0;entryX=0;entryY=0.5;entryDx=0;entryDy=0;entryPerimeter=0;" edge="1" parent="fopj0CuFSMQbgC9IibL4-1" source="fopj0CuFSMQbgC9IibL4-47" target="fopj0CuFSMQbgC9IibL4-15">
          <mxGeometry relative="1" as="geometry" />
        </mxCell>
        <mxCell id="fopj0CuFSMQbgC9IibL4-50" value="não" style="edgeLabel;html=1;align=center;verticalAlign=middle;resizable=0;points=[];" vertex="1" connectable="0" parent="fopj0CuFSMQbgC9IibL4-49">
          <mxGeometry x="-0.6791" y="-2" relative="1" as="geometry">
            <mxPoint as="offset" />
          </mxGeometry>
        </mxCell>
        <mxCell id="fopj0CuFSMQbgC9IibL4-51" value="Notificar cinema&lt;br&gt;(reservar lugares)" style="points=[[0.25,0,0],[0.5,0,0],[0.75,0,0],[1,0.25,0],[1,0.5,0],[1,0.75,0],[0.75,1,0],[0.5,1,0],[0.25,1,0],[0,0.75,0],[0,0.5,0],[0,0.25,0]];shape=mxgraph.bpmn.task;whiteSpace=wrap;rectStyle=rounded;size=10;html=1;container=1;expand=0;collapsible=0;taskMarker=abstract;" vertex="1" parent="fopj0CuFSMQbgC9IibL4-1">
          <mxGeometry x="1100" y="200" width="120" height="80" as="geometry" />
        </mxCell>
        <mxCell id="fopj0CuFSMQbgC9IibL4-52" style="edgeStyle=orthogonalEdgeStyle;rounded=0;orthogonalLoop=1;jettySize=auto;html=1;exitX=0.5;exitY=1;exitDx=0;exitDy=0;exitPerimeter=0;entryX=0.5;entryY=0;entryDx=0;entryDy=0;entryPerimeter=0;" edge="1" parent="fopj0CuFSMQbgC9IibL4-1" source="fopj0CuFSMQbgC9IibL4-19" target="fopj0CuFSMQbgC9IibL4-51">
          <mxGeometry relative="1" as="geometry" />
        </mxCell>
        <mxCell id="fopj0CuFSMQbgC9IibL4-53" value="Consultar cinema" style="points=[[0.25,0,0],[0.5,0,0],[0.75,0,0],[1,0.25,0],[1,0.5,0],[1,0.75,0],[0.75,1,0],[0.5,1,0],[0.25,1,0],[0,0.75,0],[0,0.5,0],[0,0.25,0]];shape=mxgraph.bpmn.task;whiteSpace=wrap;rectStyle=rounded;size=10;html=1;container=1;expand=0;collapsible=0;taskMarker=abstract;" vertex="1" parent="fopj0CuFSMQbgC9IibL4-1">
          <mxGeometry x="920" y="65" width="120" height="80" as="geometry" />
        </mxCell>
        <mxCell id="fopj0CuFSMQbgC9IibL4-54" style="edgeStyle=orthogonalEdgeStyle;rounded=0;orthogonalLoop=1;jettySize=auto;html=1;exitX=1;exitY=0.5;exitDx=0;exitDy=0;exitPerimeter=0;entryX=0;entryY=0.5;entryDx=0;entryDy=0;entryPerimeter=0;" edge="1" parent="fopj0CuFSMQbgC9IibL4-1" source="fopj0CuFSMQbgC9IibL4-53" target="fopj0CuFSMQbgC9IibL4-19">
          <mxGeometry relative="1" as="geometry" />
        </mxCell>
        <mxCell id="fopj0CuFSMQbgC9IibL4-55" value="Enviar aviso de inegebilidade" style="points=[[0.25,0,0],[0.5,0,0],[0.75,0,0],[1,0.25,0],[1,0.5,0],[1,0.75,0],[0.75,1,0],[0.5,1,0],[0.25,1,0],[0,0.75,0],[0,0.5,0],[0,0.25,0]];shape=mxgraph.bpmn.task;whiteSpace=wrap;rectStyle=rounded;size=10;html=1;container=1;expand=0;collapsible=0;taskMarker=send;" vertex="1" parent="fopj0CuFSMQbgC9IibL4-1">
          <mxGeometry x="943" y="610" width="120" height="80" as="geometry" />
        </mxCell>
        <mxCell id="fopj0CuFSMQbgC9IibL4-56" style="edgeStyle=orthogonalEdgeStyle;rounded=0;orthogonalLoop=1;jettySize=auto;html=1;exitX=1;exitY=0.5;exitDx=0;exitDy=0;exitPerimeter=0;entryX=0;entryY=0.5;entryDx=0;entryDy=0;entryPerimeter=0;" edge="1" parent="fopj0CuFSMQbgC9IibL4-1" source="fopj0CuFSMQbgC9IibL4-55" target="fopj0CuFSMQbgC9IibL4-24">
          <mxGeometry relative="1" as="geometry" />
        </mxCell>
        <mxCell id="fopj0CuFSMQbgC9IibL4-3" value="Ingressos.com" style="text;strokeColor=none;fillColor=none;html=1;fontSize=24;fontStyle=1;verticalAlign=middle;align=center;" vertex="1" parent="1">
          <mxGeometry x="260" y="90" width="250" height="70" as="geometry" />
        </mxCell>
        <mxCell id="fopj0CuFSMQbgC9IibL4-4" value="- Comprar um ingresso&lt;div&gt;- Usar um ingresso&lt;/div&gt;&lt;div&gt;- Cancelar uma compra&lt;/div&gt;&lt;div&gt;- Substituir ingresso (mudar horário, filme, cinema, ...)&lt;br&gt;&lt;div&gt;- Adicionar uma sessão&lt;/div&gt;&lt;/div&gt;&lt;div&gt;- Assinar a versao premiun?&lt;/div&gt;&lt;div&gt;- Verificar onde um filme está passando?&lt;/div&gt;&lt;div&gt;- Comprar pipoca?&lt;/div&gt;&lt;div&gt;- Fila de espera para uma estreia?&lt;/div&gt;&lt;div&gt;- Cadastro?&lt;/div&gt;" style="text;html=1;align=left;verticalAlign=top;whiteSpace=wrap;rounded=0;" vertex="1" parent="1">
          <mxGeometry x="60" y="170" width="290" height="170" as="geometry" />
        </mxCell>
      </root>
    </mxGraphModel>
  </diagram>
</mxfile>
